<svg width="100" height="100" viewBox="20 30 95 95" fill="none" xmlns="http://www.w3.org/2000/svg">
  <g clip-path="url(#clip0_109_2)">
    <!-- Background Gradient -->
    <defs>
      <linearGradient id="bgGradient" x1="0%" y1="0%" x2="100%" y2="100%">
        <stop offset="0%" style="stop-color:#8e44ad;stop-opacity:1" />
        <stop offset="100%" style="stop-color:#3498db;stop-opacity:1" />
      </linearGradient>
    </defs>

    <!-- Abstract Organic Shape -->
    <path d="M21.0793 53.2602C24.0387 45.3574 31.3206 36.4824 41.3285 32.8713C51.3364 29.2602 61.9699 31.2324 70.7888 37.8915C79.6077 44.5506 85.9618 54.0466 88.991 64.5525C92.0202 75.0585 91.5069 86.0347 87.8273 95.3414C84.1477 104.648 77.7954 111.859 69.3835 115.06C60.9717 118.261 51.5545 116.129 43.7106 109.179C35.8666 102.23 30.8907 91.2097 31.0708 80.2494C31.2509 69.2892 37.5299 59.9329 45.2333 54.4329C52.9366 48.9328 60.5284 48.3129 67.8701 53.2602C74.9365 57.9134 80.7895 67.6327 83.1684 78.1232C85.5472 88.6137 84.2046 99.744 79.5391 107.661C74.8737 115.578 67.4615 119.958 59.6365 119.958C51.7267 119.958 44.8552 115.331 40.1898 107.414C35.5243 99.497 34.1837 88.6667 36.7892 78.8745C39.3946 69.0822 45.4979 61.5169 53.4979 57.5169C61.4979 53.5169 70.519 53.029 78.119 56.3165C85.7142 59.6015 91.0624 66.6301 92.7046 74.7813C94.3469 82.9326 92.0911 91.9584 86.8606 98.0514C81.6301 104.144 74.1274 106.953 67.138 105.661C60.1362 104.359 54.8599 99.1692 51.9822 91.7544C49.1044 84.3395 49.9371 76.0024 54.0832 69.3736C58.2293 62.7449 65.0357 58.7083 72.5461 58.7083C80.0564 58.7083 86.861 62.7449 90.9889 69.3736C95.1169 76.0024 94.2843 84.3395 91.4065 91.7544C88.5288 99.1692 83.2525 104.359 76.2507 105.661C69.2612 106.953 61.7585 104.144 56.528 98.0514C51.2975 91.9584 49.0417 82.9326 50.684 74.7813C52.3262 66.6301 57.6744 59.6015 65.2696 56.3165C72.8696 53.029 81.8907 53.5169 89.8907 57.5169C97.8907 61.5169 103.994 69.0822 106.599 78.8745C109.204 88.6667 107.863 99.497 103.198 107.414C98.5326 115.331 91.6611 119.958 83.7513 119.958C75.9263 119.958 68.5141 115.578 63.8487 107.661C59.1832 99.744 57.8406 88.6137 60.2195 78.1232C62.5983 67.6327 68.4513 57.9134 75.5178 53.2602Z" fill="url(#bgGradient)" />
  </g>
  <defs>
    <clipPath id="clip0_109_2">
      <rect width="140" height="140" fill="white" />
    </clipPath>
  </defs>
</svg>
